<svg xmlns="http://www.w3.org/2000/svg" version="1.1" width="109" height="109" viewBox="0 0 109 109">
  <g id="logo">
    <path
      d="M0 54.508c0-30.104 24.404-54.508 54.508-54.508 30.104 0 54.508 24.404 54.508 54.508 0 30.104-24.404 54.508-54.508 54.508-30.104 0-54.508-24.404-54.508-54.508zM54.508 103.448c27.029 0 48.94-21.911 48.94-48.94 0-27.029-21.911-48.94-48.94-48.94-27.029 0-48.94 21.911-48.94 48.94 0 27.029 21.911 48.94 48.94 48.94z"
      data-fill-palette-color="accent"
      stroke="transparent"
    ></path>
    <ellipse
      rx="54"
      ry="54"
      cx="54"
      cy="54"
      fill="#4ade80"
      stroke="transparent"
      strokeWidth="0"
      fillOpacity="1"
    ></ellipse>
    <g transform="matrix(1,0,0,1,29.195794417406557,26.383332570186788)">
      <svg
        xmlns="http://www.w3.org/2000/svg"
        version="1.1"
        x="0"
        y="0"
        viewBox="32 30 36 40"
        height="56.24923694439536"
        width="50.624313249955826"
        id="x-0"
      >
        <path
          d="M67 35c-0.6 0-1 0.4-1 1v32H37c-1.7 0-3-1.3-3-3s1.3-3 3-3h27c0.6 0 1-0.4 1-1V31c0-0.6-0.4-1-1-1H37c-2.8 0-5 2.2-5 5v30c0 2.8 2.2 5 5 5h30c0.6 0 1-0.4 1-1V36C68 35.4 67.6 35 67 35zM63 60H38V32h25V60zM65 65c0 0.6-0.4 1-1 1H37c-0.6 0-1-0.4-1-1s0.4-1 1-1h27C64.6 64 65 64.4 65 65zM42 38c0-0.6 0.4-1 1-1h15c0.6 0 1 0.4 1 1s-0.4 1-1 1H43C42.4 39 42 38.6 42 38zM58 42c0 0.6-0.4 1-1 1H44c-0.6 0-1-0.4-1-1s0.4-1 1-1h13C57.6 41 58 41.4 58 42z"
          fill="#ffffff"
        ></path>
      </svg>
    </g>
  </g>
</svg>