<svg
  xmlns="http://www.w3.org/2000/svg"
  version="1.1"
  width="535"
  height="109"
  viewBox="0 0 535 109"
  preserveAspectRatio="xMidYMid meet"
>
  <g id="logo">
    <g>
      <path
        d="M0 54.508c0-30.104 24.404-54.508 54.508-54.508 30.104 0 54.508 24.404 54.508 54.508 0 30.104-24.404 54.508-54.508 54.508-30.104 0-54.508-24.404-54.508-54.508zM54.508 103.448c27.029 0 48.94-21.911 48.94-48.94 0-27.029-21.911-48.94-48.94-48.94-27.029 0-48.94 21.911-48.94 48.94 0 27.029 21.911 48.94 48.94 48.94z"
        data-fill-palette-color="accent"
        stroke="transparent"
      ></path>
      <ellipse
        rx="53.96287153196062"
        ry="53.96287153196062"
        cx="54.50795104238447"
        cy="54.50795104238447"
        fill="#4ade80"
        stroke="transparent"
        strokeWidth="0"
        fillOpacity="1"
      ></ellipse>
    </g>
    <g transform="matrix(1,0,0,1,29.195794417406557,26.383332570186788)">
      <svg viewBox="0 0 50.624313249955826 56.24923694439536" height="56.24923694439536" width="50.624313249955826">
        <g>
          <svg
            xmlns="http://www.w3.org/2000/svg"
            version="1.1"
            x="0"
            y="0"
            viewBox="32 30 36 40"
            height="56.24923694439536"
            width="50.624313249955826"
            id="x-0"
          >
            <path
              d="M67 35c-0.6 0-1 0.4-1 1v32H37c-1.7 0-3-1.3-3-3s1.3-3 3-3h27c0.6 0 1-0.4 1-1V31c0-0.6-0.4-1-1-1H37c-2.8 0-5 2.2-5 5v30c0 2.8 2.2 5 5 5h30c0.6 0 1-0.4 1-1V36C68 35.4 67.6 35 67 35zM63 60H38V32h25V60zM65 65c0 0.6-0.4 1-1 1H37c-0.6 0-1-0.4-1-1s0.4-1 1-1h27C64.6 64 65 64.4 65 65zM42 38c0-0.6 0.4-1 1-1h15c0.6 0 1 0.4 1 1s-0.4 1-1 1H43C42.4 39 42 38.6 42 38zM58 42c0 0.6-0.4 1-1 1H44c-0.6 0-1-0.4-1-1s0.4-1 1-1h13C57.6 41 58 41.4 58 42z"
              fill="#fff"
            ></path>
          </svg>
        </g>
      </svg>
    </g>
  </g>
  <g id="text" transform="matrix(1,0,0,1,138.16542125981408,23.639163898577866)">
    <svg
      width="395.52"
      viewBox="5.25 -33.880001068115234 220.52784729003906 34.43000030517578"
      height="61.73757428761321"
    >
      <path
        d="M5.25 0L5.25-30.88 13.8-30.88Q18.45-30.88 21.84-28.96 25.23-27.05 27.08-23.59 28.93-20.13 28.93-15.45L28.93-15.45Q28.93-10.83 27.08-7.35 25.23-3.88 21.84-1.94 18.45 0 13.8 0L13.8 0 5.25 0ZM13.8-28.38L8.15-28.38 8.15-2.45 13.8-2.45Q17.55-2.45 20.25-4.15 22.95-5.85 24.41-8.79 25.88-11.73 25.88-15.45L25.88-15.45Q25.88-19.2 24.41-22.11 22.95-25.03 20.25-26.7 17.55-28.38 13.8-28.38L13.8-28.38ZM39.17-29.98L39.17-29.98Q38.25-29.98 37.67-30.55 37.1-31.13 37.1-32L37.1-32Q37.1-32.85 37.67-33.36 38.25-33.88 39.17-33.88L39.17-33.88Q40.15-33.88 40.7-33.36 41.25-32.85 41.25-32L41.25-32Q41.25-31.13 40.7-30.55 40.15-29.98 39.17-29.98ZM40.62 0L37.72 0 37.72-23.75 40.62-23.75 40.62 0ZM59.75 0.55L59.75 0.55Q56.97 0.55 54.55-0.98 52.12-2.5 50.63-5.3 49.15-8.1 49.15-11.93L49.15-11.93Q49.15-15.8 50.63-18.56 52.12-21.33 54.55-22.8 56.97-24.28 59.75-24.28L59.75-24.28Q61.6-24.28 63.11-23.74 64.62-23.2 65.78-22.24 66.95-21.28 67.77-20.01 68.59-18.75 69.05-17.3L69.05-17.3 66.02-16.85Q65.3-19.15 63.65-20.45 62-21.75 59.7-21.75L59.7-21.75Q57.75-21.75 56.03-20.63 54.32-19.5 53.25-17.31 52.17-15.13 52.17-11.93L52.17-11.93Q52.17-9.03 53.13-6.79 54.1-4.55 55.8-3.29 57.5-2.02 59.7-2.02L59.7-2.02Q62.72-2.02 64.37-3.53 66.02-5.03 66.02-7.75L66.02-7.75 69.05-7.75Q69.05-5.3 67.87-3.43 66.7-1.55 64.59-0.5 62.5 0.55 59.75 0.55ZM85.39 0.55L85.39 0.55Q82.22 0.55 79.79-0.88 77.37-2.3 75.98-5.08 74.59-7.85 74.59-11.88L74.59-11.88Q74.59-15.9 75.98-18.66 77.37-21.43 79.79-22.85 82.22-24.28 85.39-24.28L85.39-24.28Q88.57-24.28 90.99-22.85 93.42-21.43 94.79-18.66 96.17-15.9 96.17-11.88L96.17-11.88Q96.17-7.85 94.79-5.08 93.42-2.3 90.99-0.88 88.57 0.55 85.39 0.55ZM85.34-1.98L85.34-1.98Q87.97-1.98 89.72-3.21 91.47-4.45 92.33-6.68 93.19-8.9 93.19-11.88L93.19-11.88Q93.19-16.35 91.28-19.07 89.37-21.8 85.44-21.8L85.44-21.8Q82.82-21.8 81.08-20.56 79.34-19.33 78.48-17.09 77.62-14.85 77.62-11.88L77.62-11.88Q77.62-7.43 79.53-4.7 81.44-1.98 85.34-1.98ZM114.67 0.55L114.67 0.55Q111.04 0.55 108.02-1.33 104.99-3.2 103.2-6.69 101.42-10.18 101.42-15L101.42-15Q101.42-19.13 102.59-22.2 103.77-25.28 105.8-27.31 107.84-29.35 110.44-30.36 113.04-31.38 115.87-31.38L115.87-31.38Q119.12-31.38 121.72-30.09 124.32-28.8 126.44-26.03L126.44-26.03 123.92-24.78Q122.02-26.85 119.99-27.79 117.97-28.73 115.79-28.73L115.79-28.73Q112.77-28.73 110.18-27.08 107.59-25.43 106.03-22.35 104.47-19.28 104.47-15L104.47-15Q104.47-11.3 105.7-8.4 106.94-5.5 109.25-3.83 111.57-2.15 114.79-2.15L114.79-2.15Q117.17-2.15 119.05-3.25 120.94-4.35 122.03-6.65 123.12-8.95 123.12-12.55L123.12-12.55 124.27-12.55Q124.27-8.58 123.32-5.63 122.37-2.68 120.25-1.06 118.14 0.55 114.67 0.55ZM125.99 0L123.74 0 123.12-7.53 123.12-12.6 114.92-12.9 114.92-15 125.99-15 125.99 0ZM152.39 0L149.86 0 149.49-4.93 149.49-15.43Q149.49-19 147.94-20.5 146.39-22 143.51-22L143.51-22Q141.91-22 140.54-21.54 139.16-21.08 138.34-20.06 137.51-19.05 137.51-17.4L137.51-17.4 134.21-17.4Q134.21-19.93 135.46-21.44 136.71-22.95 138.83-23.61 140.94-24.28 143.51-24.28L143.51-24.28Q146.06-24.28 148.06-23.39 150.06-22.5 151.23-20.54 152.39-18.57 152.39-15.38L152.39-15.38 152.39 0ZM141.61 0.55L141.61 0.55Q138.76 0.55 136.91-0.49 135.06-1.53 134.16-3.15 133.26-4.78 133.26-6.5L133.26-6.5Q133.26-9 134.48-10.5 135.69-12 137.73-12.68 139.76-13.35 142.19-13.35L142.19-13.35Q144.01-13.35 145.98-12.94 147.94-12.53 149.74-11.8L149.74-11.8 149.74-9.85Q148.19-10.53 146.16-10.93 144.14-11.33 142.49-11.33L142.49-11.33Q139.94-11.33 138.14-10.23 136.34-9.13 136.34-6.5L136.34-6.5Q136.34-4.53 137.68-3.15 139.01-1.78 141.99-1.78L141.99-1.78Q144.01-1.78 145.71-2.75 147.41-3.73 148.45-5.18 149.49-6.63 149.49-8.1L149.49-8.1 150.21-8.1Q150.21-5.83 149.15-3.85 148.09-1.88 146.15-0.66 144.21 0.55 141.61 0.55ZM198.84 0L195.96 0 195.96-13.98Q195.96-17.75 194.16-19.75 192.36-21.75 189.24-21.75L189.24-21.75Q185.69-21.75 183.86-19.06 182.04-16.38 182.04-11.9L182.04-11.9 180.56-11.9Q180.56-14.83 181.16-17.14 181.76-19.45 182.94-21.04 184.11-22.63 185.85-23.45 187.59-24.28 189.86-24.28L189.86-24.28Q192.61-24.28 194.62-23.05 196.64-21.83 197.74-19.51 198.84-17.2 198.84-13.98L198.84-13.98 198.84 0ZM164.94 0L162.04 0 162.04-23.73 164.49-23.73 164.84-18.6Q165.91-21.28 167.99-22.78 170.06-24.28 173.06-24.28L173.06-24.28Q175.81-24.28 177.82-23.05 179.84-21.83 180.94-19.51 182.04-17.2 182.04-13.98L182.04-13.98 182.04 0 179.21 0 179.21-13.98Q179.21-17.75 177.4-19.75 175.59-21.75 172.41-21.75L172.41-21.75Q170.09-21.75 168.4-20.48 166.71-19.2 165.82-16.9 164.94-14.6 164.94-11.53L164.94-11.53 164.94 0ZM216.38 0.55L216.38 0.55Q213.28 0.55 210.92-1.04 208.56-2.63 207.21-5.41 205.86-8.2 205.86-11.78L205.86-11.78Q205.86-15.68 207.2-18.48 208.53-21.28 210.9-22.78 213.26-24.28 216.38-24.28L216.38-24.28Q219.01-24.28 220.85-23.21 222.68-22.15 223.81-20.33 224.93-18.5 225.4-16.2 225.86-13.9 225.76-11.45L225.76-11.45 208.23-11.45 208.23-13.45 223.98-13.45 222.83-12.7Q222.91-14.33 222.65-15.94 222.38-17.55 221.67-18.9 220.96-20.25 219.68-21.08 218.41-21.9 216.41-21.9L216.41-21.9Q213.86-21.9 212.16-20.59 210.46-19.28 209.62-17.19 208.78-15.1 208.78-12.73L208.78-12.73 208.78-11.5Q208.78-8.78 209.62-6.6 210.46-4.42 212.15-3.15 213.83-1.88 216.38-1.88L216.38-1.88Q219.01-1.88 220.67-3.16 222.33-4.45 222.66-6.95L222.66-6.95 225.76-6.95Q225.38-4.58 224.1-2.9 222.81-1.23 220.83-0.34 218.86 0.55 216.38 0.55Z"
        opacity="1"
        transform="matrix(1,0,0,1,0,0)"
        fill="#4ade80"
        id="text-0"
      ></path>
    </svg>
  </g>
</svg>